<?xml version="1.0" encoding="UTF-8"?>
<svg width="24px" height="24px" viewBox="0 0 24 24" version="1.1" xmlns="http://www.w3.org/2000/svg" xmlns:xlink="http://www.w3.org/1999/xlink">
    <title>chart_download</title>
    <g id="chart_download" stroke="none" stroke-width="1" fill="none" fill-rule="evenodd">
        <path d="M13.5,4.75 C13.7761424,4.75 14,4.97385763 14,5.25 C14,5.52614237 13.7761424,5.75 13.5,5.75 L5.5,5.75 C5.22385763,5.75 5,5.97385763 5,6.25 L5,18.25 C5,18.5261424 5.22385763,18.75 5.5,18.75 L17.5,18.75 C17.7761424,18.75 18,18.5261424 18,18.25 L18,10.2467855 C18,9.97064313 18.2238576,9.74678551 18.5,9.74678551 C18.7761424,9.74678551 19,9.97064313 19,10.2467855 L19,18.25 C19,19.0784271 18.3284271,19.75 17.5,19.75 L5.5,19.75 C4.67157288,19.75 4,19.0784271 4,18.25 L4,6.25 C4,5.42157288 4.67157288,4.75 5.5,4.75 L13.5,4.75 Z M8.02047472,12.0254027 C8.27655032,11.7695243 8.68547994,11.7511052 8.96352263,11.9829256 L14.8201885,16.8659696 C15.0322826,17.0428049 15.0608656,17.3580944 14.8840304,17.5701885 C14.7071951,17.7822826 14.3919056,17.8108656 14.1798115,17.6340304 L8.533,12.9250114 L4.85341714,16.6036896 C4.67978392,16.7771891 4.41035211,16.7963704 4.215536,16.6612993 L4.14631041,16.6034171 C3.95112351,16.4080798 3.9512455,16.0914973 4.14658286,15.8963104 L8.02047472,12.0254027 Z M15.8915226,12.9081286 L18.7775457,14.8341053 C19.007238,14.9873896 19.0691789,15.2978535 18.9158947,15.5275457 C18.7626104,15.757238 18.4521465,15.8191789 18.2224543,15.6658947 L15.503,13.8510114 L12.7771525,15.6661568 C12.5728529,15.8022165 12.3048945,15.7681614 12.1403665,15.5974919 L12.0838432,15.5271525 C11.9307761,15.2973154 11.9930105,14.9869103 12.2228475,14.8338432 L15.1149451,12.9077616 C15.3501482,12.7511208 15.6564678,12.7512656 15.8915226,12.9081286 Z M17,4.25 C17.2761424,4.25 17.5,4.47385763 17.5,4.75 L17.5,8.75 C17.5,9.02614237 17.2761424,9.25 17,9.25 C16.7238576,9.25 16.5,9.02614237 16.5,8.75 L16.5,4.75 C16.5,4.47385763 16.7238576,4.25 17,4.25 Z M19.1876793,6.85956408 C19.4033111,6.68706035 19.7179571,6.72202257 19.8904608,6.93765437 C20.0629645,7.15328618 20.0280023,7.46793219 19.8123705,7.64043592 L17.4372845,9.54048582 C17.1816314,9.74500623 16.8183662,9.74500534 16.5627141,9.54048369 L14.1876525,7.6404344 C13.9720215,7.46792963 13.9370608,7.15328344 14.1095656,6.93765248 C14.2820704,6.72202151 14.5967166,6.68706082 14.8123475,6.8595656 L17,8.609 L19.1876793,6.85956408 Z" id="形状结合" fill="#666666" fill-rule="nonzero"></path>
    </g>
</svg>